<?xml version="1.0" encoding="UTF-8" standalone="no"?>
<svg width="192px" height="91px" viewBox="0 0 192 91" version="1.1" xmlns="http://www.w3.org/2000/svg" xmlns:xlink="http://www.w3.org/1999/xlink" xmlns:sketch="http://www.bohemiancoding.com/sketch/ns">
    <!-- Generator: Sketch 3.4 (15588) - http://www.bohemiancoding.com/sketch -->
    <title>Group</title>
    <desc>Created with Sketch.</desc>
    <defs></defs>
    <g id="Services-From-All" stroke="none" stroke-width="1" fill="purple" fill-rule="evenodd" sketch:type="MSPage">
        <g id="a3--(from-e)-copy" sketch:type="MSArtboardGroup" transform="translate(-1056.000000, -3224.000000)" fill="gainsboro">
            <g id="Group" sketch:type="MSLayerGroup" transform="translate(1053.920578, 3222.110402)">
                <path d="M143.453291,90.444422 L140.054349,90.444422 C137.248797,90.444422 134.443245,90.4392487 131.632946,90.4495954 C131.319635,90.4495954 131.167727,90.3668214 131.044302,90.0253788 C130.02367,87.1438102 128.969807,84.2725883 127.939681,81.3910196 C127.835244,81.0961373 127.69283,81.0340569 127.431738,81.0340569 C121.274715,81.0444036 115.117691,81.0444036 108.960668,81.0340569 C108.680587,81.0340569 108.552415,81.1271776 108.457472,81.4013663 C107.427346,84.2674149 106.387725,87.1282901 105.357598,89.9943386 C105.257909,90.2788741 105.162966,90.4547688 104.82592,90.4547688 C100.990242,90.4392487 97.1498161,90.444422 93.3141376,90.4392487 C93.2097008,90.4392487 93.1005169,90.4289019 92.9486088,90.4185552 C93.1384939,89.9322581 93.3141376,89.4718279 93.4992755,89.0217445 C96.4947126,81.6031279 99.4901496,74.1845112 102.48084,66.771068 C105.291139,59.8128815 108.115679,52.8598685 110.888001,45.8809885 C111.215553,45.0584222 111.581082,44.7894069 112.411829,44.7997536 C116.465875,44.8566607 120.519922,44.8307938 124.573968,44.8152737 C124.939497,44.8152737 125.119888,44.9342613 125.267048,45.3015708 C129.050509,54.7119359 132.843463,64.1119544 136.636417,73.5171462 C138.867567,79.0474817 141.103464,84.5726439 143.33936,90.1029794 C143.37259,90.1909268 143.401073,90.2892208 143.453291,90.444422 L143.453291,90.444422 Z M124.740117,72.6997532 C122.561186,66.6986408 120.401243,60.749262 118.198577,54.6860691 C115.99591,60.7596088 113.835967,66.7038141 111.657036,72.6997532 L124.740117,72.6997532 L124.740117,72.6997532 Z" id="Fill-20" sketch:type="MSShapeGroup"></path>
                <path d="M52.7974098,90.444422 L52.3654213,90.444422 C48.5677198,90.444422 44.7700183,90.4392487 40.9723168,90.4495954 C40.6590064,90.4547688 40.5213398,90.3461279 40.4121558,90.040899 C39.3820293,87.1593303 38.3376614,84.2881084 37.3075349,81.4065397 C37.2078452,81.1323509 37.089167,81.0340569 36.8138337,81.0340569 C30.6425688,81.0444036 24.4713038,81.0444036 18.3000389,81.0340569 C18.0436941,81.0340569 17.929763,81.1168308 17.8348205,81.3858462 C16.7951997,84.2932817 15.7365904,87.1955439 14.6874754,90.1029794 C14.6115214,90.3099143 14.5498087,90.4495954 14.3029581,90.4495954 C10.3533486,90.4392487 6.40848614,90.4392487 2.45887659,90.4392487 C2.4256467,90.4392487 2.38766969,90.4237285 2.30696853,90.4082084 C2.75319846,89.30628 3.18993413,88.2146983 3.6266698,87.1231167 C5.88630218,81.5255273 8.14118744,75.9227645 10.4008198,70.3251751 C13.7522914,62.0167384 17.1132572,53.713475 20.4552345,45.3998649 C20.6261311,44.9808217 20.8065219,44.8101003 21.2527518,44.8101003 C25.4966832,44.8359672 29.7406147,44.8307938 33.9892932,44.8152737 C34.3263392,44.8152737 34.4829944,44.9394347 34.6159139,45.2653572 C38.0718223,53.8479827 41.5324778,62.4254348 44.9978804,71.002887 C47.5613289,77.3557888 50.1247774,83.7086906 52.6882259,90.0615924 C52.7262029,90.1702333 52.7499385,90.2788741 52.7974098,90.444422 L52.7974098,90.444422 Z M34.1079714,72.7101 C31.924293,66.6934674 29.7643503,60.7440886 27.5616834,54.6860691 C25.3542694,60.7647821 23.1943267,66.7193343 21.0153955,72.7101 L34.1079714,72.7101 L34.1079714,72.7101 Z" id="Fill-21" sketch:type="MSShapeGroup"></path>
                <path d="M93.3948387,21.2453871 L82.0634469,21.2453871 C82.0634469,21.0694925 82.068194,20.8987712 82.0634469,20.7280499 C82.0159756,19.2846788 82.0729412,17.8206143 81.8925503,16.3979368 C81.4748032,13.1490587 79.148711,11.0124557 76.1342855,10.9865888 C73.9363657,10.9658953 71.738446,10.9503752 69.5405262,10.9917622 C68.0784112,11.0176291 66.6590202,11.3073379 65.3915374,12.1764646 C63.8154913,13.2628729 63.0274682,14.9131788 62.7141578,16.8376735 C62.5432613,17.9085617 62.4530658,19.0053167 62.4530658,20.091725 C62.4340773,30.7643931 62.4388245,41.4370613 62.4388245,52.1097294 L62.4388245,52.7874412 C64.4373649,50.6042779 66.3931811,48.4625016 68.334756,46.3414187 C70.1339171,48.3124738 71.8713655,50.2111016 73.5803312,52.0838625 C68.2540549,57.8883868 62.8803073,63.7498183 57.5255482,69.5802094 C52.1945247,63.7705118 46.8207771,57.9142537 41.466018,52.0786892 C43.189225,50.2111016 44.9219264,48.3228205 46.6736162,46.4190193 C48.6056968,48.5401022 50.5757544,50.702572 52.5505592,52.8650418 C52.5932834,52.839175 52.6407546,52.8184815 52.6834788,52.7926146 L52.6834788,52.3425312 C52.6834788,41.2870335 52.6787316,30.2315357 52.6834788,19.1708646 C52.6882259,16.6410853 52.8448811,14.1319995 53.5427087,11.6953409 C54.6867663,7.70667045 57.1742608,5.19241126 60.7630887,3.88354793 C63.0179739,3.06098165 65.3488132,2.73505917 67.7128824,2.70401893 C70.0579631,2.66780532 72.4030437,2.63676508 74.7481244,2.66263195 C77.7483086,2.69367218 80.7295043,2.9006071 83.6347459,3.7956006 C86.1934473,4.58195326 88.5100452,5.82873612 90.3187005,8.02224619 C91.8567696,9.88466041 92.7159996,12.1040374 93.1289996,14.540696 C93.4945284,16.7135125 93.4612985,18.9173694 93.44231,21.1212262 C93.4375629,21.147093 93.4233215,21.1729599 93.3948387,21.2453871" id="Fill-22" sketch:type="MSShapeGroup"></path>
                <path d="M51.9856511,73.625787 L63.3502728,73.625787 C63.3502728,73.8016817 63.3455257,73.9568828 63.3502728,74.112084 C63.3787556,75.457161 63.3407786,76.8022379 63.4452154,78.1421415 C63.7015602,81.4272332 66.1178478,83.8431983 69.1417676,83.8742385 C71.4203885,83.9001054 73.6990094,83.9207989 75.9776303,83.8690652 C77.7578028,83.8276782 79.44778,83.3931149 80.8102054,82.0221711 C81.9115388,80.9098959 82.4669527,79.482045 82.7090562,77.9093397 C82.8562171,76.9212255 82.9559068,75.9124178 82.9559068,74.9139568 C82.9748953,64.1533413 82.965401,53.3978992 82.965401,42.6372838 L82.965401,42.1095997 C80.9905962,44.2720696 79.0157915,46.4241927 77.0742166,48.5452755 C75.256067,46.5638737 73.5233657,44.6755927 71.8286414,42.8286986 C77.1501706,37.034521 82.5286653,31.178263 87.8786773,25.3530452 C93.181218,31.1317026 98.5454714,36.9776139 103.895483,42.8080051 C102.196012,44.6548992 100.458563,46.5380069 98.6973794,48.4469814 C96.7795402,46.3465921 94.8094825,44.1841222 92.8394249,42.0268258 C92.8014479,42.0475193 92.768218,42.0682128 92.730241,42.0837329 L92.730241,42.6838441 C92.730241,53.5789673 92.7349881,64.4689171 92.7254938,75.3640402 C92.7207467,77.6248042 92.6068157,79.8752214 92.132103,82.0894249 C91.120965,86.7868474 88.4245969,89.73567 84.237631,91.137654 C82.4194814,91.748112 80.5491134,92.0895546 78.6502627,92.1257682 C75.5978601,92.1878487 72.5454575,92.234409 69.4978021,92.1826753 C66.350457,92.1309416 63.2315947,91.7532854 60.250399,90.5427161 C57.4733298,89.4200942 55.1852146,87.6301072 53.704111,84.7640587 C52.7974098,83.0154587 52.2657316,81.1323509 52.1280649,79.1406024 C52.0093868,77.4075225 52.0093868,75.6640959 51.9619155,73.9206692 C51.9571684,73.8327219 51.9761569,73.7499479 51.9856511,73.625787" id="Fill-23" sketch:type="MSShapeGroup"></path>
                <path d="M162.636431,66.9210958 C157.219959,59.5749064 151.817729,52.2442371 146.368027,44.8566607 C146.567407,44.8411406 146.690832,44.8256205 146.819004,44.8256205 C151.067683,44.8256205 155.311614,44.8307938 159.555546,44.8152737 C159.897339,44.8152737 160.096718,44.9290879 160.286603,45.2239702 C163.063673,49.523043 165.850236,53.8117691 168.636799,58.1056685 C168.81719,58.3798573 168.997581,58.654046 169.206455,58.9696218 C169.382098,58.7109531 169.543501,58.4781514 169.700156,58.2401762 C172.538938,53.8635028 175.372972,49.4868294 178.221249,45.1205027 C178.311444,44.9756483 178.51557,44.8411406 178.667478,44.8411406 C183.049077,44.8256205 187.430675,44.8256205 191.812273,44.8256205 C191.864491,44.8256205 191.91671,44.846314 192.044882,44.8670074 C186.618916,52.2338904 181.216686,59.5593863 175.785972,66.9210958 C181.691398,74.7380621 187.58733,82.5446817 193.521238,90.4030351 C193.378825,90.4185552 193.279135,90.4392487 193.184192,90.4392487 C188.698158,90.444422 184.207376,90.4392487 179.716594,90.4495954 C179.460249,90.4495954 179.327329,90.3306078 179.19441,90.1288463 C175.961616,85.240009 172.724076,80.356345 169.491282,75.4726811 C169.405834,75.3433468 169.315639,75.2191858 169.206455,75.0588113 C168.361466,76.3366343 167.54496,77.5627237 166.728454,78.7939864 C164.231466,82.5653752 161.734477,86.336764 159.237488,90.1081528 C159.109316,90.304741 159.000132,90.4495954 158.734293,90.4495954 C154.186545,90.4392487 149.643545,90.444422 145.100544,90.4392487 C145.05782,90.4392487 145.019843,90.4340753 144.886924,90.4185552 C150.820832,82.5653752 156.716764,74.7587556 162.636431,66.9210958" id="Fill-24" sketch:type="MSShapeGroup"></path>
            </g>
        </g>
    </g>
</svg>