<?xml version="1.0" encoding="UTF-8" standalone="no"?>
<svg width="176px" height="86px" viewBox="0 0 176 86" version="1.1" xmlns="http://www.w3.org/2000/svg" xmlns:xlink="http://www.w3.org/1999/xlink" xmlns:sketch="http://www.bohemiancoding.com/sketch/ns">
    <!-- Generator: Sketch 3.4 (15588) - http://www.bohemiancoding.com/sketch -->
    <title>Group</title>
    <desc>Created with Sketch.</desc>
    <defs></defs>
    <g id="Services-From-All" stroke="none" stroke-width="1" fill="gainsboro" fill-rule="evenodd" sketch:type="MSPage">
        <g id="a3--(from-e)-copy" sketch:type="MSArtboardGroup" transform="translate(-418.000000, -3402.000000)">
            <g id="Group" sketch:type="MSLayerGroup" transform="translate(416.231047, 3400.940727)">
                <path d="M82.7858645,76.5081279 L69.036015,76.5081279 L69.036015,74.8257927 C70.441849,74.106846 71.8036129,73.5700325 73.1257138,73.2105592 L73.1257138,33.2706755 L69.036015,32.7338619 L69.036015,30.9844251 C70.3581159,30.356545 71.7110658,29.8484893 73.0904578,29.4698441 C74.4742567,29.0864059 75.8272067,28.7844483 77.1493076,28.5591783 L78.6961657,28.5591783 L78.6961657,36.0985323 L78.7578637,36.0985323 C79.5819733,33.8122819 80.7410151,31.9813644 82.2261751,30.6153658 C83.7113351,29.2445741 85.6548235,28.5591783 88.0478261,28.5591783 C91.7232667,28.5591783 94.5701906,29.8820402 96.593005,32.5325569 C98.6158194,35.1830736 99.6250231,39.4919606 99.6250231,45.4640109 C99.6250231,48.2918678 99.2856839,50.8513179 98.6070054,53.1375683 C97.9239199,55.4286117 96.9543793,57.3601817 95.6939764,58.9322784 C94.4335735,60.5043751 92.9087505,61.7169985 91.1151002,62.5701485 C89.317043,63.4232986 87.3250776,63.8450806 85.1392041,63.8450806 C83.6099741,63.8450806 82.4112692,63.7492211 81.5474966,63.547916 C80.679317,63.3418179 79.7274044,62.9967235 78.6961657,62.5030468 L78.6961657,73.2105592 C79.3572161,73.3016257 80.0182666,73.46938 80.679317,73.7138218 C81.3403675,73.9582637 82.041081,74.332116 82.7858645,74.8257927 L82.7858645,76.5081279 L82.7858645,76.5081279 Z M86.0646747,32.7338619 C84.0418603,32.7338619 82.4333042,33.4336367 81.2345994,34.8236003 C80.0403016,36.2135638 79.194157,38.121169 78.6961657,40.5464157 L78.6961657,59.4019902 C79.4409492,59.9004599 80.2738727,60.2695192 81.2037504,60.5139611 C82.133628,60.7631959 83.3411469,60.8830204 84.8263069,60.8830204 C86.1880708,60.8830204 87.4176247,60.5043751 88.5105614,59.7374987 C89.6034982,58.9802082 90.5333758,57.9017882 91.2957874,56.5070317 C92.0626059,55.1170681 92.6531443,53.4874557 93.0629956,51.6229873 C93.4772539,49.7633119 93.679976,47.7071245 93.679976,45.4640109 C93.679976,43.6235074 93.5477659,41.9267933 93.2789387,40.3786615 C93.0101115,38.8305297 92.5782252,37.4837029 91.9788728,36.3381812 C91.3795204,35.1926595 90.5950739,34.3059587 89.6255332,33.6780786 C88.6559925,33.0501985 87.4705087,32.7338619 86.0646747,32.7338619 L86.0646747,32.7338619 Z" id="Fill-38" fill="gainsboro" sketch:type="MSShapeGroup"></path>
                <path d="M127.089466,58.9322784 C126.758941,59.6943619 126.243322,60.4133085 125.542608,61.0843254 C124.837488,61.7601353 124.035413,62.3448786 123.12757,62.8385553 C122.219728,63.332232 121.228152,63.7252562 120.15725,64.0176278 C119.081942,64.3099995 117.989005,64.4537888 116.874033,64.4537888 C114.43696,64.4537888 112.29075,64.0367997 110.435402,63.2076146 C108.575646,62.3784294 107.028788,61.1897709 105.79042,59.6416391 C104.552053,58.0935073 103.608954,56.2386249 102.969938,54.0817849 C102.330923,51.9249449 102.013619,49.5044911 102.013619,46.8108376 C102.013619,41.0640573 103.229952,36.6880686 105.667024,33.6780786 C108.09969,30.6680885 111.545966,29.1678865 116.005853,29.1678865 C117.45135,29.1678865 118.874812,29.3787775 120.280646,29.8053525 C121.682073,30.2319276 122.929255,30.9412883 124.026599,31.9238487 C125.119536,32.9159951 126.005343,34.229271 126.688429,35.8684694 C127.367107,37.5076678 127.710854,39.5350974 127.710854,41.9603441 C127.710854,42.7224276 127.680005,43.49889 127.618306,44.2849384 C127.556608,45.0709867 127.442026,45.9097578 127.27456,46.8108376 L107.954259,46.8108376 C107.954259,48.6944779 108.174609,50.4582937 108.606495,52.0974921 C109.038382,53.7366905 109.690618,55.1602049 110.558798,56.3728283 C111.42257,57.5854517 112.515507,58.5392542 113.837608,59.234236 C115.159709,59.9340108 116.706567,60.2791052 118.482589,60.2791052 C119.928086,60.2791052 121.395618,60.0538352 122.880778,59.6080883 C124.365938,59.1575484 125.48091,58.5728051 126.225693,57.8538584 L127.089466,58.9322784 L127.089466,58.9322784 Z M115.759061,32.1299468 C113.405722,32.1299468 111.607664,32.9926827 110.369297,34.7229477 C109.135336,36.4484197 108.390552,39.4919606 108.14376,43.8487774 L121.765806,43.8487774 C121.805469,43.4413743 121.836318,43.0483501 121.858353,42.6697049 C121.880388,42.2862666 121.889203,41.9172073 121.889203,41.557734 C121.889203,38.6867403 121.395618,36.390904 120.404042,34.6893969 C119.412467,32.9830968 117.865609,32.1299468 115.759061,32.1299468 L115.759061,32.1299468 Z" id="Fill-39" fill="gainsboro" sketch:type="MSShapeGroup"></path>
                <path d="M160.084698,61.9614404 L160.084698,63.6485685 L147.388122,63.6485685 L147.388122,62.038128 C147.961033,61.6786547 148.507501,61.3383532 149.009899,61.0555676 C149.507891,60.7727819 149.983847,60.537926 150.486245,60.3557928 L144.100498,50.0460976 L143.959474,49.8399996 L139.860961,43.7529178 L132.765686,33.3425701 C132.192776,33.1316791 131.646307,32.8728583 131.192386,32.6427954 C130.71643,32.3791816 130.218438,32.0963959 129.71604,31.7321296 L129.71604,29.9731068 L142.174638,29.9731068 L142.174638,31.655442 C141.672239,32.0197083 141.196283,32.3552167 140.720327,32.6427954 C140.24437,32.9255811 139.719937,33.160437 139.147026,33.3425701 L145.149365,42.7703574 L147.031155,45.5934213 L147.842043,46.8108376 L147.961033,46.9642129 L156.797074,60.3557928 C157.392019,60.5618908 157.938487,60.8207116 158.511398,61.0555676 C159.057866,61.3143884 159.5823,61.601967 160.084698,61.9614404" id="Fill-40" fill="gainsboro" sketch:type="MSShapeGroup"></path>
                <path d="M118.632427,77.0305624 C118.632427,77.0305624 138.878199,43.0291782 156.739783,32.3456307 L152.870434,30.0785523 L177.280824,22.6350578 L162.393967,40.1198407 L160.014186,35.5856837 C160.014186,35.5856837 150.190976,38.4998142 118.632427,77.0305624" id="Fill-41" fill="gainsboro" sketch:type="MSShapeGroup"></path>
                <path d="M51.751749,1.30630675 L2.08923172,28.6742098 L28.9763573,86.391248 L78.6388746,59.023345 L51.751749,1.30630675 L51.751749,1.30630675 Z M56.6303014,54.6617352 L40.2979481,63.2603373 L41.7037821,74.758691 L32.0083754,79.8584193 L26.3762255,23.2869028 L36.8648928,17.7701854 L74.0203354,57.7484129 L63.9723685,63.0398603 L56.6303014,54.6617352 L56.6303014,54.6617352 Z" id="Fill-42" fill="gainsboro" sketch:type="MSShapeGroup"></path>
                <path d="M39.1168713,53.621659 L50.4781252,47.6400228 L36.4285994,31.6075122 L39.1168713,53.621659" id="Fill-43" fill="gainsboro" sketch:type="MSShapeGroup"></path>
            </g>
        </g>
    </g>
</svg>