<?xml version="1.0" encoding="UTF-8" standalone="no"?>
<svg width="202px" height="151px" viewBox="0 0 202 151" version="1.1" xmlns="http://www.w3.org/2000/svg" xmlns:xlink="http://www.w3.org/1999/xlink" xmlns:sketch="http://www.bohemiancoding.com/sketch/ns">
    <!-- Generator: Sketch 3.4 (15588) - http://www.bohemiancoding.com/sketch -->
    <title>Group</title>
    <desc>Created with Sketch.</desc>
    <defs></defs>
    <g id="Services-From-All" stroke="none" stroke-width="1" fill="none" fill-rule="evenodd" sketch:type="MSPage">
        <g id="a3--(from-e)-copy" sketch:type="MSArtboardGroup" transform="translate(-404.000000, -3177.000000)" fill="gainsboro">
            <g id="Group" sketch:type="MSLayerGroup" transform="translate(403.754513, 3176.363110)">
                <path d="M194.375919,81.8906796 C193.625553,81.1994144 192.930214,80.430187 192.114816,79.8324766 C190.093831,78.3304042 187.952786,76.9894537 185.97182,75.4354065 C182.580166,72.7742955 178.718282,71.1786684 174.691318,70.0716047 C171.769893,69.2711924 169.748907,67.6339854 168.508302,64.827345 C165.611889,58.2837147 162.665452,51.7608743 159.804056,45.2016515 C153.125798,29.9002634 142.505618,18.7672562 127.393247,12.6082396 C124.786975,11.5479532 121.710475,11.7714449 118.879094,11.2620917 C117.90862,11.0853773 116.858108,10.6695787 116.117747,10.0250908 C113.036244,7.34318994 109.444492,5.69558803 105.677654,4.51575953 C104.702178,4.21430556 103.076385,4.52095702 102.431071,5.22261714 C101.8758,5.83072257 102.000861,7.5043119 102.351032,8.51262348 C102.811256,9.82758652 103.671676,11.0489949 104.552105,12.1456637 C108.083828,16.5427337 110.705106,21.3971823 112.180826,26.9532909 C113.431436,31.66221 115.067234,36.2048096 118.618967,39.7131102 C119.819552,40.9033336 119.439367,42.5041582 119.039172,43.9698482 C118.248786,46.8492534 117.113232,49.6714864 116.688025,52.6028664 C115.807595,58.6995133 116.307839,64.7130004 119.054179,70.3366763 C119.739513,71.7399965 120.539904,73.0653545 122.470846,73.2992412 C122.896053,70.4250335 123.256229,67.5872081 123.746468,64.7805676 C124.261719,61.8543851 125.84249,59.5415054 127.95352,57.3429704 C131.085047,66.3294174 135.512207,74.3595276 140.949859,81.8075199 C140.834803,81.927062 140.724749,82.0414066 140.614696,82.1609487 C138.193515,79.7337244 135.522212,77.5143994 133.421187,74.8169061 C131.345174,72.1505976 129.83944,69.0009233 127.838464,65.6485472 C127.498298,67.5196408 127.188147,69.1464528 126.90801,70.7732648 C126.757937,71.6568368 126.697907,72.5611987 126.507815,73.4395733 C125.757449,76.916689 122.410816,78.3200092 119.919601,75.8771925 C118.128728,74.1256409 116.597981,71.8231562 115.63251,69.4686967 C113.061256,63.200533 112.931192,56.6309153 114.406912,50.0301127 C114.937171,47.6444682 115.697542,45.3107987 116.252813,42.9251543 C116.377874,42.3742211 116.257815,41.5270315 115.912647,41.1424178 C113.141295,38.0914957 111.595541,34.3441109 110.229875,30.5031714 C109.349445,28.0343673 108.709133,25.466811 107.773677,23.0135993 C107.168381,21.4179722 106.352984,19.8691225 105.42253,18.4450123 C103.771725,15.9086409 101.890807,13.528194 100.240002,10.9918226 C99.1144528,9.26106094 98.5641844,7.27562267 99.0894406,5.16024735 C99.9648676,1.6363543 102.876288,0.0303322481 106.938269,0.965879075 C110.940221,1.89103094 114.516966,3.77771704 117.818576,6.33487836 C118.904106,7.17687051 120.369821,7.89412308 121.68046,7.94090042 C127.333217,8.14360223 132.375677,9.95232609 137.148005,13.0708155 C146.932778,19.4533239 155.046735,27.5406064 160.864573,37.9355712 C162.685461,41.1839977 163.901054,44.7962479 165.441806,48.2161913 C167.672894,53.1641945 169.954007,58.0914078 172.1951,63.0290161 C172.970478,64.7337903 174.106032,65.8720389 175.891903,66.5477116 C183.24549,69.3179697 189.443513,74.0424812 195.236339,79.3595057 C196.597003,80.6069014 197.627505,82.2389109 199.168257,84.1307945 C193.770624,85.2638457 188.788194,86.3137371 183.360546,87.4519857 C184.0859,88.4602973 184.4961,89.3386718 185.156422,89.8844075 C186.462059,90.9654838 187.847735,91.9685979 189.308447,92.8157875 C192.895197,94.9051754 195.891659,97.6754336 198.49793,100.960242 C199.618476,102.373958 200.839072,103.709711 202.014645,105.081846 C201.904592,105.201388 201.794538,105.326128 201.689487,105.44567 C200.809057,104.759602 199.978652,103.990375 199.043196,103.392664 C196.291854,101.635915 193.465475,100.014301 190.734143,98.2159717 C187.572601,96.1369788 184.361034,94.1047632 181.429604,91.7087238 C180.098955,90.6172525 179.373601,88.7201714 178.403128,87.1661242 C177.512694,85.742014 178.438145,85.3625978 179.543684,84.9156143 C183.975846,83.1120879 188.583094,82.4883901 193.300395,82.4676001 C193.580531,82.4676001 193.855665,82.3896379 194.135802,82.348058 C194.215841,82.1973311 194.29588,82.0414066 194.375919,81.8906796" id="Fill-62" sketch:type="MSShapeGroup"></path>
                <path d="M123.611402,25.154962 C122.365794,23.1435364 121.200226,21.2620477 120.034657,19.3753616 C121.655448,18.4813947 122.91106,18.819231 124.076629,20.4928203 C125.202178,22.1040399 125.072114,23.5801249 123.611402,25.154962" id="Fill-63" sketch:type="MSShapeGroup"></path>
                <path d="M1.23671021,136.687736 L1.23671021,88.3771376 L10.4962268,88.3771376 L21.501595,122.581769 C22.5170903,125.767826 23.2574514,128.15347 23.7226784,129.733505 C24.252937,127.976756 25.0783396,125.393607 26.1988862,121.989256 L37.3293154,88.3771376 L45.6083537,88.3771376 L45.6083537,136.687736 L39.6804622,136.687736 L39.6804622,96.2513234 L26.1638691,136.687736 L20.6161631,136.687736 L7.16960415,95.5600582 L7.16960415,136.687736 L1.23671021,136.687736" id="Fill-64" sketch:type="MSShapeGroup"></path>
                <path d="M50.4607206,150.164808 L49.8254107,144.598304 C51.0760207,144.946536 52.1615502,145.12325 53.0920041,145.12325 C54.3626239,145.12325 55.3781192,144.904956 56.1384901,144.46317 C56.898861,144.026581 57.524166,143.413278 58.0094027,142.618064 C58.3695784,142.025551 58.9498614,140.554663 59.7552543,138.205401 C59.8603055,137.872762 60.0303885,137.389396 60.2605007,136.755304 L47.4792663,101.68789 L53.6322676,101.68789 L60.6406862,121.958071 C61.5511302,124.525627 62.366528,127.228318 63.0868794,130.066144 C63.742199,127.337465 64.5225797,124.681552 65.4330237,122.088008 L72.631535,101.68789 L78.3393192,101.68789 L65.5280701,137.280249 C64.1523991,141.126386 63.0868794,143.771905 62.3265085,145.222002 C61.3110131,147.176256 60.1454446,148.610761 58.8348053,149.525518 C57.524166,150.435077 55.9584022,150.892456 54.1425165,150.892456 C53.0419797,150.892456 51.8163819,150.648174 50.4607206,150.164808" id="Fill-65" sketch:type="MSShapeGroup"></path>
                <path d="M78.1142093,121.168054 L83.6469081,120.637911 C83.9120374,123.05474 84.5223351,125.040178 85.4778011,126.589028 C86.4382696,128.137878 87.9239943,129.390471 89.9399777,130.34161 C91.955961,131.297947 94.2270688,131.776115 96.7432962,131.776115 C98.9843894,131.776115 100.960353,131.417489 102.671188,130.689842 C104.387025,129.962194 105.662647,128.969475 106.498054,127.706487 C107.338464,126.443498 107.753667,125.066166 107.753667,123.574488 C107.753667,122.056823 107.353472,120.731465 106.548079,119.603612 C105.737683,118.470561 104.407034,117.519421 102.551129,116.750194 C101.360548,116.246038 98.7292649,115.461218 94.6572787,114.395734 C90.5852925,113.33025 87.7339016,112.321939 86.0981037,111.381195 C83.9820716,110.170181 82.4013005,108.668109 81.3657954,106.880175 C80.3252879,105.092241 79.8050341,103.086013 79.8050341,100.866688 C79.8050341,98.4290685 80.440344,96.1473737 81.7109638,94.0268009 C82.9815835,91.9062281 84.8374888,90.3002061 87.2786796,89.1983398 C89.7198703,88.101671 92.4311929,87.5507379 95.4126471,87.5507379 C98.6992503,87.5507379 101.600666,88.1276584 104.11189,89.2814995 C106.623115,90.4353406 108.554057,92.1349173 109.904716,94.3750322 C111.255375,96.6151471 111.980729,99.1515185 112.080777,101.989344 L106.453032,102.446722 C106.152886,99.3958002 105.127386,97.088118 103.386537,95.5288733 C101.640685,93.9696286 99.0644284,93.1848088 95.6577667,93.1848088 C92.1060343,93.1848088 89.5197727,93.8968639 87.8989821,95.3105791 C86.2731891,96.7294918 85.4627938,98.4394635 85.4627938,100.435297 C85.4627938,102.171256 86.0380744,103.600563 87.1886357,104.72322 C88.3191871,105.840678 91.2656243,106.989322 96.0329497,108.163953 C100.805278,109.338584 104.076873,110.367686 105.847737,111.24606 C108.428996,112.545431 110.334926,114.187835 111.565526,116.173273 C112.796126,118.163909 113.411427,120.450801 113.411427,123.044345 C113.411427,125.617099 112.736097,128.039126 111.385438,130.310425 C110.034779,132.586923 108.093833,134.354067 105.562598,135.617055 C103.031363,136.880043 100.184975,137.508938 97.0184304,137.508938 C93.0064735,137.508938 89.6448337,136.874846 86.9285088,135.601462 C84.2171862,134.328079 82.0911492,132.410208 80.5503977,129.847849 C79.0046437,127.290688 78.1942484,124.39569 78.1142093,121.168054" id="Fill-66" sketch:type="MSShapeGroup"></path>
                <path d="M147.002812,131.516241 C149.303934,133.558852 151.424969,135.050529 153.360913,135.996471 L151.905203,140.445516 C149.218893,139.192923 146.537585,137.212682 143.861279,134.509991 C141.089928,136.511022 138.023432,137.508938 134.671797,137.508938 C131.280143,137.508938 128.208644,136.45385 125.4523,134.348869 C122.690953,132.238691 120.569918,129.276126 119.079191,125.450779 C117.588464,121.63063 116.8431,117.321917 116.8431,112.535036 C116.8431,107.763747 117.593466,103.423849 119.094198,99.5153423 C120.589928,95.6068356 122.720968,92.6286782 125.487317,90.5808701 C128.253666,88.543457 131.350177,87.519553 134.771846,87.519553 C138.228532,87.519553 141.345052,88.5798394 144.116404,90.7004122 C146.892758,92.820985 149.00879,95.7887475 150.4645,99.598502 C151.92021,103.408257 152.645564,107.711772 152.645564,112.498653 C152.645564,116.474727 152.180337,120.050595 151.244881,123.226257 C150.304422,126.401919 148.893734,129.161782 147.002812,131.516241 L147.002812,131.516241 Z M143.175945,127.955966 C146.087365,124.525627 147.543075,119.374922 147.543075,112.498653 C147.543075,108.590147 147.027824,105.170203 145.997321,102.249218 C144.966819,99.3282329 143.461084,97.0621306 141.475115,95.4457136 C139.494149,93.8292966 137.268063,93.0236868 134.796858,93.0236868 C131.105057,93.0236868 128.038561,94.6556963 125.602373,97.9145177 C123.171187,101.178537 121.955594,106.048578 121.955594,112.535036 C121.955594,118.813594 123.15618,123.636858 125.567356,126.999629 C127.97353,130.3624 131.055033,132.041187 134.796858,132.041187 C136.567722,132.041187 138.238537,131.614993 139.8043,130.757409 L143.175945,127.955966 Z" id="Fill-67" sketch:type="MSShapeGroup"></path>
                <path d="M159.25879,136.687736 L159.25879,88.3771376 L165.411791,88.3771376 L165.411791,130.986098 L188.312962,130.986098 L188.312962,136.687736 L159.25879,136.687736" id="Fill-68" sketch:type="MSShapeGroup"></path>
            </g>
        </g>
    </g>
</svg>