<?xml version="1.0" encoding="UTF-8" standalone="no"?>
<svg width="99px" height="119px" viewBox="0 0 99 119" version="1.1" xmlns="http://www.w3.org/2000/svg" xmlns:xlink="http://www.w3.org/1999/xlink" xmlns:sketch="http://www.bohemiancoding.com/sketch/ns">
    <!-- Generator: Sketch 3.4 (15588) - http://www.bohemiancoding.com/sketch -->
    <title>Group</title>
    <desc>Created with Sketch.</desc>
    <defs></defs>
    <g id="Services-From-All" stroke="none" stroke-width="1" fill="gainsboro" fill-rule="evenodd" sketch:type="MSPage">
        <g id="a3-copy" sketch:type="MSArtboardGroup" transform="translate(-1453.000000, -3287.000000)">
            <g id="Group" sketch:type="MSLayerGroup" transform="translate(1453.000000, 3287.000000)">
                <path d="M58.962602,109.117651 C62.2120781,110.043284 64.9143801,110.814645 68.0329373,111.70722 C67.2004268,114.193941 66.478694,116.350079 65.763675,118.480505 C57.6198432,115.835838 49.7747753,113.587872 42.1244074,110.711797 C35.3233344,108.158959 30.9190857,100.000897 31.2044219,90.9098554 C31.4830444,82.0281833 34.3229791,74.5129223 42.3728177,70.7148872 C49.556577,67.3282447 57.7004088,69.1868576 62.866673,74.8324862 C69.2582046,81.8077945 70.9232255,100.195574 58.962602,109.117651 L58.962602,109.117651 Z M47.9486234,76.5478464 C46.8475612,77.4661334 44.088192,78.8105056 42.688366,81.1319352 C39.5832365,86.2780157 39.7141554,92.1513795 41.5134521,97.8814905 C42.789073,101.940319 45.2429645,104.680488 49.4424425,104.82374 C53.2424497,104.955974 55.9783207,102.685968 57.6534122,97.7676229 C59.4896348,92.3644221 59.3251468,86.9979527 56.9887466,81.7380046 C55.4714293,78.3219769 53.0544635,76.6029436 47.9486234,76.5478464 L47.9486234,76.5478464 Z" id="Fill-28" fill="gainsboro" sketch:type="MSShapeGroup"></path>
                <path d="M0,110.77869 C0.929860428,106.903519 1.48039151,104.607801 2.00071052,102.436971 C5.15955046,103.138542 8.02298347,104.042136 10.9401268,104.332315 C13.4880115,104.585762 16.4286532,104.526992 17.3719412,101.074233 C18.3588689,97.4561819 15.7606307,96.1228292 13.3906615,94.8115153 C10.5171578,93.2247153 7.37510238,92.0199228 4.84400216,89.9335747 C-0.876150078,85.2172525 -0.375972447,76.3539461 5.57244877,71.9167832 C10.4399492,68.2803666 18.288374,68.0159 24.7638281,71.4319277 C24.2300815,73.6284703 23.6795504,75.8911295 23.172659,77.9701313 C20.0339604,77.5330267 17.2141671,76.6661637 14.4850099,76.9306304 C12.8032046,77.0959221 11.2657458,78.9912665 9.66114914,80.1079035 C10.6984303,81.6800109 11.4772303,83.6524914 12.8434874,84.7213775 C14.6998513,86.1796173 17.0295377,86.9032275 19.1208845,88.0198645 C24.6899763,90.9914413 26.9827369,95.2633125 26.2408627,101.166062 C25.5728402,106.503146 21.5848468,111.054176 15.8646945,111.516993 C10.836063,111.924712 5.72686603,111.094581 0,110.77869" id="Fill-29" fill="gainsboro" sketch:type="MSShapeGroup"></path>
                <path d="M98.021794,110.40759 L74.8592058,110.40759 L74.8592058,69.0222307 L83.0701755,69.0222307 L83.0701755,102.756423 L98.021794,102.756423 L98.021794,110.40759" id="Fill-30" fill="gainsboro" sketch:type="MSShapeGroup"></path>
                <path d="M45.7755506,0 C50.5759131,1.1607148 56.1517188,2.31041015 61.6167468,3.91557587 C64.3895436,4.73101475 66.1384869,6.8430749 66.1217024,10.4758184 C66.0881334,18.7587673 66.2929041,27.0417163 66.4204662,35.3246652 C66.4708197,38.4064365 66.4775335,41.4918809 66.6957318,44.5589595 C66.9743542,48.4855548 65.3093334,51.2698011 62.3183383,52.8529279 C50.7706131,58.9687195 39.0886121,58.8401593 27.4838197,53.0182196 C22.0725019,50.3037631 22.8949417,44.8234262 22.948652,39.7177503 C23.0191468,33.2823949 22.9587227,26.8396931 22.9788641,20.4043377 C22.9889348,17.708247 23.1332813,15.0121563 23.0929986,12.3234119 C22.9990055,6.35087305 26.4129696,3.70253328 31.0622717,2.61160829 C35.6041531,1.53904905 40.2400277,0.958691653 45.7755506,0 L45.7755506,0 Z M64.151204,15.4492609 C51.1700838,21.0177534 38.3937344,21.1059089 25.6140281,15.4455877 C24.8822246,22.0352154 26.0604954,24.1215635 31.5523786,26.1968922 C38.6958551,28.9003292 46.0575299,29.4439551 53.3386392,27.6367663 C61.7275244,25.5577644 65.450323,23.6403811 64.151204,15.4492609 L64.151204,15.4492609 Z M63.9195781,27.9600033 C48.7195491,34.648806 42.3045192,34.6561523 25.6475971,28.0077542 C24.771447,35.0638717 25.9295764,37.2640874 31.8813545,39.3577818 C40.5186501,42.3918022 49.1861578,42.3954753 57.8167396,39.3137041 C63.7315918,37.2016439 64.963573,34.8287902 63.9195781,27.9600033 L63.9195781,27.9600033 Z M25.5233919,40.6470568 C25.0198574,48.0411039 25.8020143,49.7858493 30.9917769,51.8207733 C40.2232432,55.4424973 49.5285613,55.4241316 58.7432431,51.7693492 C64.0706384,49.6572891 65.1851282,46.9354863 63.758447,40.8821383 C51.0928752,47.4350345 38.4508017,47.4864586 25.5233919,40.6470568 L25.5233919,40.6470568 Z" id="Fill-31" fill="gainsboro" sketch:type="MSShapeGroup"></path>
            </g>
        </g>
    </g>
</svg>