<?xml version="1.0" encoding="UTF-8" standalone="no"?>
<svg width="183px" height="62px" viewBox="0 0 183 62" version="1.1" xmlns="http://www.w3.org/2000/svg" xmlns:xlink="http://www.w3.org/1999/xlink" xmlns:sketch="http://www.bohemiancoding.com/sketch/ns">
    <!-- Generator: Sketch 3.4 (15588) - http://www.bohemiancoding.com/sketch -->
    <title>Group</title>
    <desc>Created with Sketch.</desc>
    <defs></defs>
    <g id="Services-From-All" stroke="none" stroke-width="1" fill="none" fill-rule="evenodd" sketch:type="MSPage">
        <g id="a3-copy" sketch:type="MSArtboardGroup" transform="translate(-1068.000000, -3524.000000)" fill="gainsboro">
            <g id="Group" sketch:type="MSLayerGroup" transform="translate(1067.090253, 3522.240366)">
                <path d="M132.944271,55.3072767 L132.944271,55.3072767 C130.884434,55.3072767 129.203417,53.4691292 129.203417,51.2249652 L129.203417,14.1298206 C129.203417,11.8856566 130.884434,10.0475092 132.944271,10.0475092 C135.000727,10.0475092 136.685126,11.8856566 136.685126,14.1298206 L136.685126,51.2249652 C136.685126,53.4691292 135.000727,55.3072767 132.944271,55.3072767" id="Fill-14" sketch:type="MSShapeGroup"></path>
                <path d="M67.9088707,53.2845763 L49.6916527,27.1887879 C48.5856315,25.6016325 48.869747,23.3168669 50.3207657,22.1098905 C51.7751667,20.9029142 53.8688276,21.2129631 54.9748489,22.7964275 L73.1920669,48.8922158 C74.2980881,50.4756802 74.0139725,52.7641369 72.5629539,53.9711133 C71.1085529,55.1780896 69.0148919,54.8680406 67.9088707,53.2845763" id="Fill-15" sketch:type="MSShapeGroup"></path>
                <path d="M54.9816135,53.7238123 L73.1954492,27.631715 C74.3014704,26.0445596 74.0173549,23.7561029 72.5629539,22.5491266 C71.1119352,21.3421502 69.0148919,21.6485081 67.9088707,23.2356636 L49.695035,49.3277608 C48.5856315,50.9149163 48.869747,53.1996819 50.324148,54.4103493 C51.778549,55.6173257 53.87221,55.3072767 54.9816135,53.7238123" id="Fill-16" sketch:type="MSShapeGroup"></path>
                <path d="M86.8702008,26.3140069 C86.8702008,26.3140069 86.7754957,21.951175 83.447285,21.951175 C83.447285,21.951175 79.8315765,21.8478253 79.8315765,27.1444952 L79.8315765,51.0182659 C79.8315765,51.0182659 80.115692,55.2740571 83.3525798,55.2740571 C83.3525798,55.2740571 87.4418143,55.8978461 87.4418143,51.1216156 L87.4418143,35.0322887 C87.4418143,35.0322887 87.7259298,29.4255698 91.0575228,28.4917318 C91.0575228,28.4917318 96.5740995,26.9341048 97.3351233,31.4002864 L97.3351233,50.3944769 C97.3351233,50.3944769 97.9067367,54.8606585 101.329653,54.8606585 C101.329653,54.8606585 105.040066,55.3774068 105.040066,50.6048673 L105.040066,33.5780114 C105.040066,33.5780114 104.755951,27.8679428 109.795619,27.8679428 C109.795619,27.8679428 114.267057,27.5578938 114.645877,31.0865464 L114.645877,50.6048673 C114.645877,50.6048673 114.551172,55.2998946 118.738494,55.2998946 C118.738494,55.2998946 122.543613,55.6911468 122.543613,49.774379 L122.543613,28.5950815 C122.543613,28.5950815 122.448908,21.951175 113.884854,21.951175 C113.884854,21.951175 107.228432,21.5377763 104.279042,26.6240559 C104.279042,26.6240559 102.378174,21.9437929 96.6688047,21.9437929 C96.6688047,21.9437929 89.6301804,22.1615653 86.8702008,26.3140069" id="Fill-17" sketch:type="MSShapeGroup"></path>
                <path d="M143.033755,2.03052864 L157.682617,2.03052864 C157.682617,2.03052864 160.916123,1.30338998 163.578015,4.93908326 L182.985812,30.6325461 C182.985812,30.6325461 184.886681,33.0686452 182.319494,35.6634598 L162.055967,61.0985485 C162.05935,61.0985485 160.155099,63.3833141 155.206753,63.3833141 L144.268305,63.3833141 C144.268305,63.3833141 140.179071,62.8628748 143.033755,59.9580112 L162.840668,34.6262722 C162.840668,34.6262722 164.386391,33.0686452 162.840668,30.6325461 L143.317871,4.72869289 C143.317871,4.72869289 140.940094,2.75766729 143.033755,2.03052864" id="Fill-18" sketch:type="MSShapeGroup"></path>
                <path d="M42.0002391,2.03052864 L27.351377,2.03052864 C27.351377,2.03052864 24.1178715,1.30338998 21.4525972,4.93908326 L2.04818208,30.6325461 C2.04818208,30.6325461 0.147313802,33.0686452 2.71450067,35.6634598 L22.9746447,61.0985485 C22.978027,61.0985485 24.8788953,63.3833141 29.8238587,63.3833141 L40.7656894,63.3833141 C40.7656894,63.3833141 44.8549238,62.8628748 42.0002391,59.9580112 L22.193327,34.6262722 C22.193327,34.6262722 20.6476031,33.0686452 22.193327,30.6325461 L41.7161235,4.72869289 C41.7161235,4.72869289 44.0939,2.75766729 42.0002391,2.03052864" id="Fill-19" sketch:type="MSShapeGroup"></path>
            </g>
        </g>
    </g>
</svg>