<?xml version="1.0" encoding="UTF-8" standalone="no"?>
<svg width="67px" height="70px" viewBox="0 0 67 70" version="1.1" xmlns="http://www.w3.org/2000/svg" xmlns:xlink="http://www.w3.org/1999/xlink" xmlns:sketch="http://www.bohemiancoding.com/sketch/ns">
    <!-- Generator: Sketch 3.3.2 (12043) - http://www.bohemiancoding.com/sketch -->
    <title>Artboard 20</title>
    <desc>Created with Sketch.</desc>
    <defs></defs>
    <g id="Home-+-Services---ONLY" stroke="none" stroke-width="1" fill="none" fill-rule="evenodd" sketch:type="MSPage">
        <g id="Artboard-20" sketch:type="MSArtboardGroup" fill="#129CC9">
            <path d="M28.5,54.2106137 C28.5,58.953478 25.7013438,62.7008307 17.7759239,63 C13.1320269,60.2352635 9.23952968,56.2454804 6.5,51.4510353 C7.92889138,47.7578425 12.3929451,44.9441041 17.5,45.0008431 C18.9486002,45.0188964 20.2986562,45.2613266 21.5255319,45.679132 C24.8982083,48.131804 27.6204927,49.666336 28.3029115,52.4646001 C28.431019,53.029411 28.5,53.6148543 28.5,54.2106137 L28.5,54.2106137 Z M33.3195634,4 C24.3096159,4 16.1924565,7.86134705 10.5,14.0339754 C12.7506217,12.775332 15.406604,12.0266778 18.229207,12.0266778 L33.8467809,12.0266778 L30.3576955,15.7272401 L26.2568389,15.7272401 C29.1490743,17.4004067 30.6884498,20.8472305 30.6884498,24.6482833 C30.6884498,28.1353033 28.7760431,30.9465247 26.0728102,33.0794353 C23.4367229,35.1595885 22.936861,36.0313435 22.936861,37.8024883 C22.936861,39.3123579 26.0877314,41.5608326 27.5350926,42.6586912 C32.5784747,46.4798421 33.6005803,48.884077 33.6005803,53.6623998 C33.6005803,58.5060414 29.4027356,63.3295849 22.2803261,64.9675799 C25.7122133,66.281493 29.4325781,67 33.3195634,67 C50.5411716,67 64.5,52.8986721 64.5,35.5012561 C64.5,18.1038402 50.5411716,4 33.3195634,4 L33.3195634,4 Z M48.8995151,28.0010209 L48.8995151,36 L45.1004849,36 L45.1004849,28.0010209 L37.5,28.0010209 L37.5,23.9989791 L45.1004849,23.9989791 L45.1004849,16 L48.8995151,16 L48.8995151,23.9989791 L56.5,23.9989791 L56.5,28.0010209 L48.8995151,28.0010209 L48.8995151,28.0010209 Z M24.3728008,25.1077412 C25.0950708,30.5931507 22.6883286,34.1201901 18.5031203,33.9968671 C14.3154384,33.8710775 10.3380063,30.0406634 9.61326282,24.5577204 C8.89099282,19.0747773 11.6984464,14.879327 15.8861283,15.00265 C20.0713366,15.1284395 23.6530043,19.6272646 24.3752743,25.1102077 L24.3728008,25.1077412 L24.3728008,25.1077412 Z M15.714842,44.0572935 C11.2463735,44.0572935 7.45220644,45.647989 4.77698885,48 C3.3111162,44.3068638 2.5,40.2633207 2.5,36.0256675 C2.5,32.5215996 3.05458849,29.1511401 4.07336998,26 C4.5155749,32.1409419 8.70308444,36.8777358 15.6195602,36.8777358 C16.1301725,36.8777358 16.623683,36.8500057 17.1098641,36.814713 C16.6334555,37.7550132 16.2938617,38.8011917 16.2938617,39.9003094 C16.2938617,41.7506589 17.2808826,42.806921 18.5,44.0295634 C17.5765002,44.0295634 16.6896473,44.0572935 15.7172851,44.0572935 L15.714842,44.0572935 L15.714842,44.0572935 Z" id="Fill-2" sketch:type="MSShapeGroup"></path>
        </g>
    </g>
</svg>